<?xml version="1.0" encoding="UTF-8"?>
<!-- Created with Inkscape (http://www.inkscape.org/) -->
<svg width="138.84" height="58.937" version="1.1" viewBox="0 0 138.84 58.937" xml:space="preserve" xmlns="http://www.w3.org/2000/svg"><defs><clipPath id="clipPath23"><path d="M 0,44.203 H 104.127 V 0 H 0 Z"/></clipPath></defs><g transform="matrix(1.3333 0 0 -1.3333 0 58.937)"><g clip-path="url(#clipPath23)"><g transform="translate(52.764 22.09)"><path d="m0 0v-2.324c0-2.8-1.399-4.4-4.099-4.4s-4.099 1.6-4.099 4.4v9.097c0 2.799 1.399 4.399 4.099 4.399s4.099-1.6 4.099-4.399v-1.7h-2.6v1.875c0 1.25-0.549 1.725-1.424 1.725-0.874 0-1.425-0.475-1.425-1.725v-9.447c0-1.25 0.551-1.7 1.425-1.7 0.875 0 1.424 0.45 1.424 1.7v2.499z" fill="#34006e"/></g><g transform="translate(56.965 19.591)"><path d="m0 0c0-1.25 0.55-1.725 1.425-1.725s1.425 0.475 1.425 1.725v9.447c0 1.25-0.55 1.725-1.425 1.725s-1.425-0.475-1.425-1.725zm-2.749 9.272c0 2.799 1.475 4.399 4.174 4.399s4.174-1.6 4.174-4.399v-9.097c0-2.8-1.475-4.4-4.174-4.4s-4.174 1.6-4.174 4.4z" fill="#34006e"/></g><g transform="translate(67.09 30.563)"><path d="m0 0v-12.497h1.55c0.874 0 1.399 0.45 1.399 1.7v9.098c0 1.25-0.525 1.699-1.399 1.699zm-2.75 2.5h4.35c2.749 0 4.098-1.525 4.098-4.324v-8.848c0-2.8-1.349-4.324-4.098-4.324h-4.35z" fill="#34006e"/></g><g transform="translate(77.289 25.689)"><path d="m0 0h3.774v-2.499h-3.774v-5.124h4.749v-2.499h-7.498v17.496h7.498v-2.5h-4.749z" fill="#34006e"/></g><path d="m87.614 33.063h2.75v-17.496h-2.75z" fill="#4ab7c3"/><g transform="translate(95.113 30.563)"><path d="m0 0v-12.497h1.55c0.875 0 1.399 0.45 1.399 1.7v9.098c0 1.25-0.524 1.699-1.399 1.699zm-2.749 2.5h4.349c2.749 0 4.098-1.525 4.098-4.324v-8.848c0-2.8-1.349-4.324-4.098-4.324h-4.349z" fill="#4ab7c3"/></g><path d="m26.417 7.397h-9.388v-1.826h9.388zm-0.689 13.301 0.059 0.979c0.038 0.661 0.087 1.299 0.147 1.896 0.058 0.565 0.125 1.074 0.199 1.508 0.443 2.567 2.81 2.777 3.731 0.721 0.171-0.381 0.273-0.837 0.273-1.353 0-0.799-0.238-1.448-0.659-1.977-0.4-0.504-0.958-0.877-1.623-1.152-0.184-0.076-0.375-0.145-0.572-0.208-0.204-0.067-0.406-0.126-0.605-0.175zm-8.011 0-0.949 0.239c-0.199 0.049-0.402 0.108-0.606 0.175-0.196 0.063-0.388 0.132-0.571 0.208-0.666 0.275-1.223 0.648-1.623 1.152-0.421 0.529-0.659 1.178-0.659 1.977 0 0.516 0.102 0.972 0.273 1.353 0.853 1.906 3.267 1.97 3.729-0.721 0.077-0.434 0.141-0.943 0.199-1.508 0.061-0.597 0.11-1.235 0.149-1.896zm1.962-6.222c4e-3 1.044-1e-3 2.204-0.021 3.392l-0.013 0.766 0.764-0.039 0.648-0.026 0.64-0.017v2e-3h0.051v-2e-3l0.641 0.017 0.648 0.026 0.764 0.039-0.014-0.766c-0.019-1.188-0.024-2.348-0.02-3.392 4e-3 -1.036 0.016-1.968 0.029-2.696l0.013-0.731h-4.171l0.011 0.731c0.013 0.728 0.026 1.66 0.03 2.696m-1.892 3.772c0.024-1.249 0.031-2.494 0.027-3.616-4e-3 -1.125-0.017-2.12-0.031-2.874l-0.013-0.709h-4.171v-1.826h16.248v1.826h-4.172l-0.012 0.709c-0.014 0.754-0.028 1.748-0.032 2.874-3e-3 1.122 3e-3 2.367 0.028 3.616l0.011 0.586 0.577 0.106c0.42 0.078 0.828 0.17 1.22 0.28 0.384 0.108 0.752 0.232 1.097 0.375 1.061 0.437 1.933 1.027 2.529 1.818 0.585 0.776 0.916 1.769 0.916 3.036 0 0.882-0.193 1.652-0.517 2.297-0.353 0.699-0.862 1.256-1.446 1.643-0.257 0.17-0.529 0.308-0.813 0.412-0.282 0.103-0.573 0.172-0.864 0.204-0.302 0.034-0.609 0.029-0.913-0.017-0.235-0.036-0.464-0.094-0.683-0.176l-0.176-0.078c-0.563-0.251-1.079-0.66-1.487-1.24-0.383-0.542-0.671-1.239-0.819-2.098-0.099-0.57-0.179-1.22-0.242-1.92-0.065-0.709-0.116-1.496-0.156-2.323l-0.033-0.648-0.646-0.035-0.734-0.034-0.746-0.019h-0.022l-0.746 0.019-0.735 0.034-0.645 0.035-0.032 0.648c-0.04 0.827-0.093 1.614-0.157 2.323-0.063 0.7-0.144 1.35-0.242 1.92-0.149 0.859-0.437 1.556-0.821 2.1-0.405 0.576-0.921 0.985-1.485 1.236l-0.216 0.095c-0.207 0.074-0.422 0.128-0.643 0.161-0.304 0.046-0.611 0.051-0.914 0.017-0.291-0.032-0.581-0.101-0.863-0.204-0.282-0.104-0.556-0.242-0.813-0.412-0.585-0.387-1.093-0.944-1.446-1.643-0.324-0.645-0.518-1.416-0.518-2.297 0-1.267 0.332-2.26 0.916-3.036 0.597-0.791 1.468-1.381 2.53-1.818 0.345-0.143 0.713-0.267 1.096-0.375h3e-3c0.396-0.11 0.803-0.203 1.218-0.28l0.575-0.106zm7.474-14.355h-7.076v-1.826h7.076z" fill="#34006e" fill-rule="evenodd"/><path d="m13.599 38.824h16.248v-1.826h-16.248z" fill="#34006e" fill-rule="evenodd"/><g transform="translate(3.8583 24.982)"><path d="m0 0c0.336 3e-3 0.868 0.051 1.287 0.304 0.374 0.226 0.683 0.667 0.683 1.506v8.486c0 1.63 0.707 2.551 1.567 3.069 0.805 0.485 1.712 0.568 2.255 0.568h1.554v-1.827h-1.554c-0.335 0-0.883-0.043-1.313-0.302-0.375-0.227-0.682-0.667-0.682-1.508v-8.486c0-1.316-0.462-2.17-1.093-2.723 0.631-0.553 1.093-1.407 1.093-2.724v-8.486c0-0.839 0.307-1.28 0.682-1.506 0.43-0.259 0.978-0.304 1.313-0.304h1.554v-1.826h-1.554c-0.543 0-1.45 0.082-2.255 0.567-0.86 0.519-1.567 1.44-1.567 3.069v8.486c0 0.841-0.309 1.282-0.683 1.508-0.419 0.251-0.951 0.299-1.287 0.302z" fill="#4ab7c3" fill-rule="evenodd"/></g><g transform="translate(35.791 26.792)"><path d="m0 0v8.486c0 0.841-0.308 1.281-0.683 1.508-0.43 0.258-0.978 0.302-1.313 0.302h-1.554v1.827h1.554c0.544 0 1.45-0.083 2.255-0.568 0.86-0.518 1.567-1.439 1.567-3.069v-8.486c0-0.839 0.309-1.28 0.684-1.506 0.419-0.253 0.95-0.301 1.287-0.304v-1.827c-0.337-3e-3 -0.868-0.051-1.287-0.302-0.375-0.226-0.684-0.667-0.684-1.508v-8.486c0-1.629-0.707-2.55-1.567-3.069-0.805-0.485-1.711-0.567-2.255-0.567h-1.554v1.826h1.554c0.335 0 0.883 0.045 1.313 0.304 0.375 0.226 0.683 0.667 0.683 1.506v8.486c0 1.317 0.462 2.171 1.093 2.724-0.631 0.553-1.093 1.407-1.093 2.723" fill="#4ab7c3" fill-rule="evenodd"/></g></g></g></svg>
